<svg height="10" viewBox="0 0 12 10" width="12" xmlns="http://www.w3.org/2000/svg"><path d="m178.365468 7487.85364c-.056-.06594-.279-.27077-.397-.32573-1-.65345-2.257-.09791-2.458.61749 1.12-.62948 1.855-.39067 2.855-.29176zm-8.7 0c1-.09492 1.79-.30374 2.826.29176-.255-.97319-1.987-1.29093-2.826-.29176zm3.577.07594c-.037.03897-.11.09293-.18.14388-.218.17985-.52.38369-.598.65546-.016.17586.089.56054.153.71941.094-.21583.175-.62149.175-.62149s.27-.19084.564-.39767c.074-.06295.151-.1209.235-.21582.242-.31474.103-.97819-.084-1.29793-.022.08393-.185.98119-.265 1.01416zm-4.256-1.3279c-.059.16786.007.38668.122.4826.111.10092.226.08593.221.08893.005-.001-.002-.10392.021-.19284.001-.007.09-.25679.091-.25979.06-.17885.056-.52456.047-.53855-.004-.01599-.408.05995-.502.41965zm9.709-.41965c-.01.01399-.078.33772-.023.52956.022.10291.071.19184.109.28177.04.08593.072.17985.072.17985s.104-.01899.188-.1259c.083-.10191.133-.28077.092-.43264-.06-.32473-.428-.44963-.438-.43264zm-4.016 2.24714c.295.20683.563.39767.563.39767.001 0 .081.40466.176.62149.282-.69643.127-.84331-.023-1.00917-.156-.16986-.569-.47461-.602-.50958-.077-.03097-.243-.93023-.265-1.01416-.178.30375-.325.98519-.084 1.29793.084.09492.161.15287.235.21582zm-5.009-.57053c.005-.004.009-.00799.014-.01199-.006.003-.013.005-.019.00699zm2.283-.16087c.107-.07893.517-.39167.47-.51657-.484-1.29493-2.294-1.07911-2.521.09392l.289.34372zm5.639-.07893.288-.34372c-.138-.71241-.901-1.12507-1.623-.92723-.698.19184-.986.8493-.854.97619.124.1199.288.27078.427.37369zm-2.514-1.6886c.595-.26079 1.092-.64347 1.532-1.10309.359-.37769.689-.38668 1.132-.18385.169.07794 1.034.51158 1.185.54755.287.06794.143-.38568-.112-.52657-.815-.45462-1.745-.95221-2.576-.46161-.358.21182-1.131.88826-1.526.91424-.2.01399-.274.08693-.279.28077.016.09192.026.18584.051.27577.092.33872.262.40366.593.25679zm-5.835-.80034s.765-.37669 1.023-.4896c.444-.19284.764-.18884 1.118.17686.535.55154.9.82931 1.65 1.16603.189.08493.335.02798.418-.16486.055-.12889.097-.26978.112-.40866.021-.19884-.063-.25979-.26-.29676-.433-.08093-.936-.51757-1.331-.79134-.525-.3667-1.189-.38468-1.787-.16786-.259.09292-1.004.46961-1.184.70841-.056.07394-.094.22282-.053.28776.073.11491.195.005.294-.01998zm7.34 7.4948c-.295-.06195-.93-.13489-1.207-.03797-.826.28576-1.654.29775-2.495.07793-.592-.15487-.754-.16086-1.463-.03996 1.271 1.9284 4.074 1.73656 5.165 0zm3.156-2.92558c-.092-.09692-.962-1.03315-1.08-1.0951.05.4926.201.33473.147 1.02915-.069.90725-.734.8473-1.528.8503-.723.004-.82-.32273-1.389-.54955-.412-.16386-.904-.08093-1.156.30775-.107.16486-.28.25679-.498.2438-.144-.009-.289-.008-.433 0-.245.01299-.42-.08193-.553-.27877-.176-.25979-.46-.3657-.752-.35571-.315.00999-.601.15188-.861.33972-.539.39168-.897.26578-1.47.29376-.585.02897-.973-.41066-.976-.93323-.002-.53955.09-.54055.151-.95221-.372.23081-.869.70941-1.169 1.29093-.205.39767-.202.82132-.121 1.24597.239 1.24497 1.89 1.3249 3.146 1.21.326-.02998.649-.08693.973-.14089.322-.05395.64-.07593.955.04297.16.05995.321.13888.488.15687.374.03997.76.07594 1.111-.08993.357-.16786.725-.20383 1.094-.10891 1.004.25679 3.038.3677 3.764-.39167.202-.21283.332-.44963.381-.73939.081-.4856.036-.95221-.224-1.37586zm-10.074-1.84548c-.005.011-.009.02199-.014.03298.006-.00899.012-.01799.019-.02798zm8.671.002c.01.006.019.01199.029.01799-.011-.005-.023-.00899-.034-.01299z" fill-rule="evenodd" transform="translate(-168 -7484)"/></svg>